<svg width="24" height="32" viewBox="0 0 24 32" fill="none" xmlns="http://www.w3.org/2000/svg">
<path d="M18 16H6V20H18V16ZM23.5625 6.5625L17.4438 0.4375C17.1625 0.15625 16.7812 0 16.3813 0H16V8H24V7.61875C24 7.225 23.8438 6.84375 23.5625 6.5625ZM14 8.5V0H1.5C0.66875 0 0 0.66875 0 1.5V30.5C0 31.3312 0.66875 32 1.5 32H22.5C23.3312 32 24 31.3312 24 30.5V10H15.5C14.675 10 14 9.325 14 8.5ZM4 4.5C4 4.22375 4.22375 4 4.5 4H9.5C9.77625 4 10 4.22375 10 4.5V5.5C10 5.77625 9.77625 6 9.5 6H4.5C4.22375 6 4 5.77625 4 5.5V4.5ZM4 8.5C4 8.22375 4.22375 8 4.5 8H9.5C9.77625 8 10 8.22375 10 8.5V9.5C10 9.77625 9.77625 10 9.5 10H4.5C4.22375 10 4 9.77625 4 9.5V8.5ZM20 27.5C20 27.7763 19.7763 28 19.5 28H14.5C14.2238 28 14 27.7763 14 27.5V26.5C14 26.2237 14.2238 26 14.5 26H19.5C19.7763 26 20 26.2237 20 26.5V27.5ZM20 15V21C20 21.5525 19.5525 22 19 22H5C4.4475 22 4 21.5525 4 21V15C4 14.4475 4.4475 14 5 14H19C19.5525 14 20 14.4475 20 15Z" fill="white"/>
</svg>
