<svg width="109" height="1024" viewBox="0 0 109 1024" fill="none" xmlns="http://www.w3.org/2000/svg">
<g filter="url(#filter0_d_114:6)">
<rect width="100" height="1024" fill="#421652"/>
</g>
<g clip-path="url(#clip0_114:6)">
<path d="M100 415L89.9057 445.167C79.9625 475.333 59.547 535.667 47.5624 596C35.3509 656.333 31.5702 716.667 33.4605 777C35.3509 837.333 43.6683 897.667 47.5624 927.833L51.6077 958H100V927.833C100 897.667 100 837.333 100 777C100 716.667 100 656.333 100 596C100 535.667 100 475.333 100 445.167V415Z" fill="#F25327"/>
</g>
<path d="M0 512L11.7516 541.167C23.3272 570.333 47.0945 628.667 61.0468 687C75.2632 745.333 79.6645 803.667 77.4639 862C75.2632 920.333 65.5802 978.667 61.0468 1007.83L56.3374 1037H0V1007.83C0 978.667 0 920.333 0 862C0 803.667 0 745.333 0 687C0 628.667 0 570.333 0 541.167V512Z" fill="#FB980B"/>
<path d="M100.548 634L96.5688 655.667C92.7385 677.333 84.5573 720.667 66.8188 764C48.8573 807.333 21.3385 850.667 15.277 894C9.43852 937.333 25.0573 980.667 33.127 1002.33L41.0479 1024H100.548V1002.33C100.548 980.667 100.548 937.333 100.548 894C100.548 850.667 100.548 807.333 100.548 764C100.548 720.667 100.548 677.333 100.548 655.667V634Z" fill="#FFBE18"/>
<g clip-path="url(#clip1_114:6)">
<path d="M64.6338 947.701L60.1083 943.175C59.8882 942.963 59.5935 942.845 59.2876 942.848C58.9817 942.85 58.6891 942.973 58.4728 943.189C58.2565 943.406 58.1338 943.698 58.1311 944.004C58.1285 944.31 58.2461 944.605 58.4586 944.825L62.9841 949.35C63.1186 949.487 63.2361 949.64 63.3341 949.805C63.3166 949.805 63.3026 949.796 63.2851 949.796L44.9871 949.833C44.6777 949.833 44.3809 949.956 44.1621 950.175C43.9434 950.394 43.8204 950.691 43.8204 951C43.8204 951.309 43.9434 951.606 44.1621 951.825C44.3809 952.044 44.6777 952.167 44.9871 952.167L63.2781 952.129C63.3108 952.129 63.3376 952.113 63.3691 952.111C63.2656 952.308 63.1344 952.49 62.9794 952.65L58.4539 957.175C58.3425 957.283 58.2536 957.412 58.1925 957.554C58.1313 957.696 58.0992 957.849 58.0978 958.004C58.0965 958.159 58.126 958.313 58.1846 958.456C58.2433 958.599 58.3299 958.73 58.4395 958.839C58.549 958.949 58.6793 959.035 58.8227 959.094C58.966 959.153 59.1197 959.182 59.2746 959.181C59.4295 959.18 59.5826 959.147 59.7249 959.086C59.8672 959.025 59.996 958.936 60.1036 958.825L64.6291 954.299C65.504 953.424 65.9954 952.237 65.9954 951C65.9954 949.763 65.504 948.576 64.6291 947.701H64.6338Z" fill="#444444"/>
<path d="M46.1667 962.667H43.8333C42.9051 962.667 42.0148 962.298 41.3585 961.642C40.7021 960.985 40.3333 960.095 40.3333 959.167V942.833C40.3333 941.905 40.7021 941.015 41.3585 940.358C42.0148 939.702 42.9051 939.333 43.8333 939.333H46.1667C46.4761 939.333 46.7728 939.21 46.9916 938.992C47.2104 938.773 47.3333 938.476 47.3333 938.167C47.3333 937.857 47.2104 937.561 46.9916 937.342C46.7728 937.123 46.4761 937 46.1667 937H43.8333C42.2868 937.002 40.8042 937.617 39.7106 938.711C38.617 939.804 38.0019 941.287 38 942.833V959.167C38.0019 960.713 38.617 962.196 39.7106 963.289C40.8042 964.383 42.2868 964.998 43.8333 965H46.1667C46.4761 965 46.7728 964.877 46.9916 964.658C47.2104 964.439 47.3333 964.143 47.3333 963.833C47.3333 963.524 47.2104 963.227 46.9916 963.008C46.7728 962.79 46.4761 962.667 46.1667 962.667Z" fill="#444444"/>
</g>
<defs>
<filter id="filter0_d_114:6" x="-7" y="-8" width="116" height="1040" filterUnits="userSpaceOnUse" color-interpolation-filters="sRGB">
<feFlood flood-opacity="0" result="BackgroundImageFix"/>
<feColorMatrix in="SourceAlpha" type="matrix" values="0 0 0 0 0 0 0 0 0 0 0 0 0 0 0 0 0 0 127 0" result="hardAlpha"/>
<feOffset dx="1"/>
<feGaussianBlur stdDeviation="4"/>
<feComposite in2="hardAlpha" operator="out"/>
<feColorMatrix type="matrix" values="0 0 0 0 0 0 0 0 0 0 0 0 0 0 0 0 0 0 0.49 0"/>
<feBlend mode="normal" in2="BackgroundImageFix" result="effect1_dropShadow_114:6"/>
<feBlend mode="normal" in="SourceGraphic" in2="effect1_dropShadow_114:6" result="shape"/>
</filter>
<clipPath id="clip0_114:6">
<rect width="597" height="133" fill="white" transform="matrix(0 1 1 0 -33 361)"/>
</clipPath>
<clipPath id="clip1_114:6">
<rect width="28" height="28" fill="white" transform="translate(38 937)"/>
</clipPath>
</defs>
</svg>
