<svg width="25" height="28" viewBox="0 0 25 28" fill="none" xmlns="http://www.w3.org/2000/svg">
<g clip-path="url(#clip0_127:6)">
<path d="M23.9583 25.6667H3.125C2.84873 25.6667 2.58378 25.5438 2.38843 25.325C2.19308 25.1062 2.08333 24.8094 2.08333 24.5V1.16667C2.08333 0.857247 1.97358 0.560501 1.77823 0.341709C1.58288 0.122916 1.31793 0 1.04167 0C0.765399 0 0.500447 0.122916 0.305097 0.341709C0.109747 0.560501 0 0.857247 0 1.16667L0 24.5C0 25.4283 0.32924 26.3185 0.91529 26.9749C1.50134 27.6313 2.2962 28 3.125 28H23.9583C24.2346 28 24.4995 27.8771 24.6949 27.6583C24.8902 27.4395 25 27.1428 25 26.8333C25 26.5239 24.8902 26.2272 24.6949 26.0084C24.4995 25.7896 24.2346 25.6667 23.9583 25.6667Z" fill="white"/>
<path d="M15.625 23.3333C15.9013 23.3333 16.1663 23.2103 16.3616 22.9915C16.557 22.7728 16.6667 22.476 16.6667 22.1666V13.9999C16.6667 13.6905 16.557 13.3938 16.3616 13.175C16.1663 12.9562 15.9013 12.8333 15.625 12.8333C15.3488 12.8333 15.0838 12.9562 14.8885 13.175C14.6931 13.3938 14.5834 13.6905 14.5834 13.9999V22.1666C14.5834 22.476 14.6931 22.7728 14.8885 22.9915C15.0838 23.2103 15.3488 23.3333 15.625 23.3333Z" fill="white"/>
<path d="M7.29166 23.3333C7.56793 23.3333 7.83288 23.2103 8.02823 22.9915C8.22358 22.7728 8.33333 22.476 8.33333 22.1666V13.9999C8.33333 13.6905 8.22358 13.3938 8.02823 13.175C7.83288 12.9562 7.56793 12.8333 7.29166 12.8333C7.0154 12.8333 6.75045 12.9562 6.5551 13.175C6.35975 13.3938 6.25 13.6905 6.25 13.9999V22.1666C6.25 22.476 6.35975 22.7728 6.5551 22.9915C6.75045 23.2103 7.0154 23.3333 7.29166 23.3333Z" fill="white"/>
<path d="M19.7917 23.3333C20.0679 23.3333 20.3329 23.2104 20.5282 22.9916C20.7236 22.7728 20.8333 22.4761 20.8333 22.1667V8.16667C20.8333 7.85725 20.7236 7.5605 20.5282 7.34171C20.3329 7.12292 20.0679 7 19.7917 7C19.5154 7 19.2504 7.12292 19.0551 7.34171C18.8597 7.5605 18.75 7.85725 18.75 8.16667V22.1667C18.75 22.4761 18.8597 22.7728 19.0551 22.9916C19.2504 23.2104 19.5154 23.3333 19.7917 23.3333Z" fill="white"/>
<path d="M11.4583 23.3333C11.7346 23.3333 11.9995 23.2104 12.1949 22.9916C12.3902 22.7728 12.5 22.4761 12.5 22.1667V8.16667C12.5 7.85725 12.3902 7.5605 12.1949 7.34171C11.9995 7.12292 11.7346 7 11.4583 7C11.182 7 10.9171 7.12292 10.7217 7.34171C10.5264 7.5605 10.4166 7.85725 10.4166 8.16667V22.1667C10.4166 22.4761 10.5264 22.7728 10.7217 22.9916C10.9171 23.2104 11.182 23.3333 11.4583 23.3333Z" fill="white"/>
</g>
<defs>
<clipPath id="clip0_127:6">
<rect width="25" height="28" fill="white"/>
</clipPath>
</defs>
</svg>
