<svg width="27" height="27" viewBox="0 0 27 27" fill="none" xmlns="http://www.w3.org/2000/svg">
<g clip-path="url(#clip0_127:12)">
<path d="M13.5 13.5C14.835 13.5 16.1401 13.1041 17.2501 12.3624C18.3601 11.6207 19.2253 10.5665 19.7362 9.33312C20.2471 8.09972 20.3808 6.74252 20.1203 5.43314C19.8599 4.12377 19.217 2.92104 18.273 1.97703C17.329 1.03303 16.1262 0.390153 14.8169 0.129702C13.5075 -0.130748 12.1503 0.00292468 10.9169 0.513816C9.68349 1.02471 8.62928 1.88987 7.88758 2.9999C7.14588 4.10994 6.75 5.41498 6.75 6.75C6.75179 8.53967 7.46352 10.2555 8.729 11.521C9.99449 12.7865 11.7103 13.4982 13.5 13.5ZM13.5 2.25C14.39 2.25 15.26 2.51392 16.0001 3.00839C16.7401 3.50286 17.3169 4.20566 17.6575 5.02793C17.9981 5.8502 18.0872 6.755 17.9135 7.62791C17.7399 8.50082 17.3113 9.30265 16.682 9.93198C16.0526 10.5613 15.2508 10.9899 14.3779 11.1635C13.505 11.3372 12.6002 11.2481 11.7779 10.9075C10.9557 10.5669 10.2529 9.99009 9.75839 9.25007C9.26392 8.51005 9 7.64002 9 6.75C9 5.55653 9.47411 4.41194 10.318 3.56802C11.1619 2.72411 12.3065 2.25 13.5 2.25Z" fill="white"/>
<path d="M13.5 15.75C10.8156 15.753 8.24199 16.8207 6.34383 18.7188C4.44567 20.617 3.37798 23.1906 3.375 25.875C3.375 26.1734 3.49353 26.4595 3.7045 26.6705C3.91548 26.8815 4.20163 27 4.5 27C4.79837 27 5.08452 26.8815 5.29549 26.6705C5.50647 26.4595 5.625 26.1734 5.625 25.875C5.625 23.7864 6.45468 21.7834 7.93153 20.3065C9.40838 18.8297 11.4114 18 13.5 18C15.5886 18 17.5916 18.8297 19.0685 20.3065C20.5453 21.7834 21.375 23.7864 21.375 25.875C21.375 26.1734 21.4935 26.4595 21.7045 26.6705C21.9155 26.8815 22.2016 27 22.5 27C22.7984 27 23.0845 26.8815 23.2955 26.6705C23.5065 26.4595 23.625 26.1734 23.625 25.875C23.622 23.1906 22.5543 20.617 20.6562 18.7188C18.758 16.8207 16.1844 15.753 13.5 15.75Z" fill="white"/>
</g>
<defs>
<clipPath id="clip0_127:12">
<rect width="27" height="27" fill="white"/>
</clipPath>
</defs>
</svg>
