<svg width="25" height="28" viewBox="0 0 25 28" fill="none" xmlns="http://www.w3.org/2000/svg">
<path d="M12.5 0C10.0277 0 7.61098 0.821086 5.55537 2.35943C3.49976 3.89777 1.89761 6.08427 0.951511 8.64243C0.00541603 11.2006 -0.242125 14.0155 0.240189 16.7313C0.722504 19.447 1.91301 21.9416 3.66117 23.8995C5.40932 25.8574 7.63661 27.1908 10.0614 27.731C12.4861 28.2712 14.9995 27.9939 17.2835 26.9343C19.5676 25.8747 21.5198 24.0803 22.8934 21.778C24.2669 19.4757 25 16.7689 25 14C24.9964 10.2882 23.6783 6.72958 21.3349 4.10494C18.9914 1.4803 15.8141 0.0040146 12.5 0ZM22.4719 10.64L13.1927 12.6607C13.0467 12.4082 12.9185 12.1434 12.8094 11.8685L9.3302 2.88517C10.6473 2.41234 12.0354 2.23843 13.4133 2.3736C14.7911 2.50877 16.1311 2.95031 17.3547 3.67239C18.5784 4.39447 19.6612 5.3826 20.5399 6.57897C21.4185 7.77534 22.0753 9.15594 22.4719 10.64ZM12.5 25.6667C10.1949 25.6676 7.95472 24.8118 6.13065 23.2333C4.30658 21.6549 3.00177 19.4431 2.42081 16.9448C1.83985 14.4464 2.01558 11.8028 2.92046 9.42831C3.82533 7.05385 5.40818 5.08285 7.42083 3.82433L10.8979 12.7972C11.3927 14.0725 12.1696 15.1856 13.1552 16.0312L20.0854 21.9718C19.1146 23.1371 17.9404 24.0663 16.6355 24.702C15.3306 25.3376 13.9229 25.6659 12.5 25.6667ZM21.3542 20.1192L14.974 14.6498L22.8708 12.9313C22.8989 13.2813 22.9187 13.6395 22.9187 14C22.9178 16.1634 22.3758 18.2832 21.3542 20.1192Z" fill="white"/>
</svg>
