<svg width="26" height="28" viewBox="0 0 26 28" fill="none" xmlns="http://www.w3.org/2000/svg">
<path d="M25.0639 10.5556L17.1628 1.70523C16.1849 0.613218 14.8604 0 13.4795 0C12.0986 0 10.774 0.613218 9.79616 1.70523L1.89513 10.5556C1.60391 10.8796 1.37301 11.2652 1.21584 11.69C1.05867 12.1148 0.978336 12.5703 0.979505 13.0301V24.4832C0.979505 25.4115 1.30874 26.3017 1.8948 26.9581C2.48085 27.6145 3.2757 27.9832 4.1045 27.9832H22.8545C23.6833 27.9832 24.4781 27.6145 25.0642 26.9581C25.6502 26.3017 25.9795 25.4115 25.9795 24.4832V13.0301C25.9806 12.5703 25.9003 12.1148 25.7431 11.69C25.586 11.2652 25.3551 10.8796 25.0639 10.5556ZM16.6045 25.6499H10.3545V21.0602C10.3545 20.132 10.6837 19.2417 11.2698 18.5854C11.8558 17.929 12.6507 17.5602 13.4795 17.5602C14.3083 17.5602 15.1031 17.929 15.6892 18.5854C16.2752 19.2417 16.6045 20.132 16.6045 21.0602V25.6499ZM23.8961 24.4832C23.8961 24.7927 23.7864 25.0894 23.5911 25.3082C23.3957 25.527 23.1307 25.6499 22.8545 25.6499H18.6878V21.0602C18.6878 19.5131 18.1391 18.0294 17.1623 16.9354C16.1856 15.8415 14.8608 15.2269 13.4795 15.2269C12.0982 15.2269 10.7734 15.8415 9.79665 16.9354C8.8199 18.0294 8.27116 19.5131 8.27116 21.0602V25.6499H4.1045C3.82823 25.6499 3.56328 25.527 3.36793 25.3082C3.17258 25.0894 3.06284 24.7927 3.06284 24.4832V13.0301C3.0638 12.7209 3.17345 12.4245 3.36804 12.2052L11.2691 3.3584C11.8563 2.70381 12.651 2.33633 13.4795 2.33633C14.308 2.33633 15.1027 2.70381 15.6899 3.3584L23.5909 12.2087C23.7848 12.4272 23.8944 12.7221 23.8961 13.0301V24.4832Z" fill="white"/>
</svg>
